<?xml version="1.0" encoding="UTF-8" standalone="no"?>
<svg
   width="797.70789"
   height="560"
   viewBox="0 0 31.908315 22.4"
   id="Layer_1"
   version="1.1"
   xml:space="preserve"
   xmlns="http://www.w3.org/2000/svg"
   xmlns:svg="http://www.w3.org/2000/svg"><defs
   id="defs45"><rect
     x="319.22614"
     y="350.18137"
     width="169.28658"
     height="112.21282"
     id="rect363" /></defs>

<style
   type="text/css"
   id="style32">
	.st0{fill:#00BBB4;}
	.st1{fill:#1B75BC;}
	.st2{fill:#F15A29;}
</style>

<g
   id="g40"
   transform="translate(-0.04584124,-4.8000002)">



<circle
   style="opacity:1;fill:#00f6ff;fill-opacity:1;stroke:#1b75bc;stroke-width:0.666688;stroke-dasharray:none;stroke-opacity:1;paint-order:stroke fill markers"
   id="path848"
   cx="15.871243"
   cy="16.148731"
   r="8.461071" /><path
   class="st2"
   d="M 12.016932,11.253674 C 12.016932,11.253674 10.056788,5 6.5219972,5 2.9871461,5 -2.9452269,8.192627 2.3416383,16 c -5.2868652,7.807373 0.6455078,11 4.1803589,11 3.5347908,0 5.4949348,-6.253735 5.4949348,-6.253735 v -0.06079 C 10.669886,20.453479 9.5937751,18.262207 9.2231696,16.96991 9.1724493,16.977844 9.1269171,17 9.0739996,17 H 6.2263429 c -0.5527344,0 -1,-0.447754 -1,-1 0,-0.552246 0.4472656,-1 1,-1 h 2.8476567 c 0.052917,0 0.098511,0.02216 0.1491699,0.03009 0.3706055,-1.292297 1.4466555,-3.483569 2.7937625,-3.715564 v -0.06085 z"
   id="path36"
   style="fill:#fff5bd;fill-opacity:1;stroke:#f15a29;stroke-width:0.4;stroke-dasharray:none;stroke-opacity:1" />
<path
   class="st2"
   d="m 25.478002,5 c -3.53479,0 -5.494934,6.253674 -5.494934,6.253674 v 0.06085 c 1.347107,0.231995 2.423157,2.423267 2.793762,3.715564 C 22.827551,15.022156 22.873083,15 22.926,15 h 2.847657 c 0.552734,0 1,0.447754 1,1 0,0.552246 -0.447266,1 -1,1 H 22.926 c -0.05292,0 -0.09845,-0.02216 -0.14917,-0.03009 -0.370605,1.292297 -1.446716,3.483569 -2.793762,3.715564 v 0.06079 c 0,0 1.960144,6.253735 5.494934,6.253735 3.534852,0 9.467224,-3.192627 4.180359,-11 C 34.945226,8.192627 29.012853,5 25.478002,5 Z"
   id="path38"
   style="fill:#fff5bd;fill-opacity:1;stroke:#f15a29;stroke-width:0.4;stroke-dasharray:none;stroke-opacity:1" /><path
   class="st1"
   d="m 18.330149,12.045773 h -4.660297 c -1.742031,0 -3.154227,2.212196 -3.154227,3.954227 0,1.742031 1.412196,3.954226 3.154227,3.954226 h 4.660297 c 1.742029,0 3.154226,-2.212195 3.154226,-3.954226 0,-1.742031 -1.412197,-3.954227 -3.154226,-3.954227 z"
   id="path34" />

<text
   xml:space="preserve"
   transform="matrix(0.64,0,0,0.64,-191.09125,-212.3892)"
   id="text361"
   style="white-space:pre;shape-inside:url(#rect363);display:inline;fill:#ffff00"><tspan
     x="319.22656"
     y="361.1296"
     id="tspan2299"><tspan
       style="font-weight:bold;-inkscape-font-specification:'sans-serif Bold'"
       id="tspan2297">5</tspan></tspan></text></g>
</svg>
